<?xml version="1.0" standalone="no"?>
<!DOCTYPE svg PUBLIC "-//W3C//DTD SVG 20010904//EN"
 "http://www.w3.org/TR/2001/REC-SVG-20010904/DTD/svg10.dtd">
<svg version="1.0" xmlns="http://www.w3.org/2000/svg"
 width="881.000000pt" height="310.000000pt" viewBox="0 0 881.000000 310.000000"
 preserveAspectRatio="xMidYMid meet">

<g transform="translate(0.000000,310.000000) scale(0.100000,-0.100000)"
fill="#000000" stroke="none">
<path d="M1060 2999 c-181 -19 -351 -86 -501 -199 -151 -113 -312 -316 -380
-478 -96 -231 -113 -526 -44 -769 32 -113 109 -268 178 -361 66 -89 903 -932
926 -932 9 0 212 197 452 437 473 475 500 508 598 714 76 159 86 208 85 449 0
190 -2 212 -27 303 -30 111 -104 274 -167 367 -129 189 -350 357 -567 430
-138 46 -343 60 -553 39z m338 -355 c292 -60 528 -282 608 -575 25 -89 25
-309 0 -398 -70 -256 -273 -474 -516 -555 -195 -65 -418 -52 -594 35 -165 82
-320 240 -387 395 -147 344 -43 735 254 960 176 133 410 184 635 138z"/>
<path d="M937 2303 c-4 -3 -7 -201 -7 -440 l0 -433 115 0 115 0 0 144 0 144
118 4 c93 4 128 9 169 27 109 48 159 146 151 291 -8 145 -88 234 -232 259 -67
12 -418 15 -429 4z m376 -195 c36 -19 46 -40 47 -96 0 -43 -5 -57 -25 -77 -13
-14 -34 -25 -47 -25 -13 0 -47 -3 -75 -6 l-53 -7 0 112 0 111 66 0 c36 0 75
-5 87 -12z"/>
<path d="M2875 2631 c-81 -20 -155 -91 -174 -166 -8 -30 -11 -281 -11 -798 0
-843 -2 -823 67 -889 56 -53 97 -70 169 -70 84 0 156 38 199 107 l30 48 3 289
3 288 172 0 c199 0 250 10 373 70 64 31 96 55 153 116 229 241 224 596 -11
833 -94 93 -202 148 -339 170 -72 12 -587 13 -634 2z m652 -458 c19 -9 46 -33
60 -55 33 -49 28 -111 -11 -163 -46 -60 -66 -65 -251 -65 l-165 0 0 150 0 150
166 0 c134 0 173 -3 201 -17z"/>
<path d="M5967 2624 c-64 -20 -129 -84 -145 -144 -10 -34 -12 -233 -10 -830 3
-774 3 -786 24 -825 60 -115 227 -155 336 -81 l33 22 50 -23 c130 -59 346 -70
485 -23 219 73 389 237 463 445 142 401 -89 832 -503 941 -116 30 -304 20
-415 -22 -13 -5 -15 18 -15 187 0 166 -3 200 -19 234 -24 54 -80 101 -143 120
-62 18 -79 18 -141 -1z m673 -994 c49 -25 117 -103 130 -149 26 -94 -4 -197
-75 -260 -53 -46 -94 -61 -165 -61 -74 0 -123 19 -174 68 -54 52 -76 104 -76
182 0 54 5 74 30 117 67 116 214 162 330 103z"/>
<path d="M4722 2119 c-225 -33 -436 -187 -537 -393 -60 -122 -76 -189 -76
-316 -1 -335 219 -618 545 -700 144 -36 282 -25 413 35 63 29 74 31 84 18 26
-31 93 -56 149 -56 96 0 182 54 221 138 17 36 19 69 19 346 0 273 -2 314 -20
385 -73 291 -308 502 -604 543 -87 12 -105 12 -194 0z m174 -474 c213 -63 245
-344 52 -455 -45 -25 -63 -30 -123 -30 -59 0 -78 5 -122 30 -62 35 -99 82
-119 147 -39 127 38 268 168 308 57 18 84 18 144 0z"/>
<path d="M7472 2115 c-105 -33 -168 -127 -160 -238 5 -56 27 -107 217 -503
116 -243 211 -446 211 -452 0 -6 -48 -115 -106 -242 -90 -196 -107 -241 -111
-293 -6 -78 22 -138 85 -182 35 -24 55 -30 112 -33 83 -5 143 19 191 77 17 20
195 380 396 801 322 673 367 772 371 823 8 100 -39 182 -132 229 -88 45 -219
16 -275 -62 -15 -20 -83 -159 -151 -308 -69 -149 -128 -268 -131 -264 -3 4
-62 131 -130 282 -139 307 -159 337 -250 364 -62 19 -80 19 -137 1z"/>
</g>
</svg>
